<svg xmlns="http://www.w3.org/2000/svg" viewBox="0 0 200 46.18">
    <SCRIPT xmlns="" id="allow-copy_script">(function agent() {
        let unlock = false
        document.addEventListener('allow_copy', (event) =&gt; {
        unlock = event.detail.unlock
        })

        const copyEvents = [
        'copy',
        'cut',
        'contextmenu',
        'selectstart',
        'mousedown',
        'mouseup',
        'mousemove',
        'keydown',
        'keypress',
        'keyup',
        ]
        const rejectOtherHandlers = (e) =&gt; {
        if (unlock) {
        e.stopPropagation()
        if (e.stopImmediatePropagation) e.stopImmediatePropagation()
        }
        }
        copyEvents.forEach((evt) =&gt; {
        document.documentElement.addEventListener(evt, rejectOtherHandlers, {
        capture: true,
        })
        })
        })()
    </SCRIPT>
    <script xmlns=""/>
    <linearGradient id="a" x1="61.22" x2="22.01" y1="61.65" y2="22.44" gradientTransform="translate(-22.24,-22)"
                    gradientUnits="userSpaceOnUse">
        <stop stop-color="#21d789" offset=".23"/>
        <stop stop-color="#af1df5" offset=".89"/>
    </linearGradient>
    <g transform="scale(.679)">
        <path d="m95.76 26.91h6.64l14 33.37h-7.54l-3-7.43h-13.82l-3 7.43h-7.28zm7.57 19.5-4.35-10.74-4.34 10.74z"/>
        <path d="m117.13 47.74v-0.09a12.94 12.94 0 0 1 13.13-13.21c4.72 0 7.66 1.61 10 4.26l-4.34 4.73a7.3 7.3 0 0 0-5.71-2.79c-3.55 0-6.07 3.17-6.07 6.91v0.1c0 3.88 2.48 7 6.35 7 2.39 0 4-1 5.75-2.7l4.16 4.26a12.54 12.54 0 0 1-10.23 4.64 12.87 12.87 0 0 1-13.04-13.11z"/>
        <path d="m142.36 53v-0.1c0-5.54 4.16-8.1 10.1-8.1a17.5 17.5 0 0 1 6.12 1v-0.43c0-3-1.82-4.64-5.38-4.64a18.23 18.23 0 0 0-6.91 1.37l-1.78-5.49a21.89 21.89 0 0 1 9.72-2c3.88 0 6.68 1 8.46 2.84s2.71 4.68 2.71 8.09v14.74h-6.87v-2.74a9.57 9.57 0 0 1-7.57 3.22c-4.72 0-8.6-2.76-8.6-7.76zm16.31-1.65v-1.29a10.83 10.83 0 0 0-4.53-1c-3 0-4.91 1.23-4.91 3.51v0.09c0 1.94 1.59 3.08 3.88 3.08 3.32 0.05 5.56-1.8 5.56-4.4z"/>
        <path d="m169.23 47.65v-0.1c0-8.47 5.47-13.11 11.4-13.11a9.6 9.6 0 0 1 7.81 3.78v-12.49h7.1v34.55h-7.1v-3.64a9.18 9.18 0 0 1-7.81 4.12c-5.87 0-11.4-4.64-11.4-13.11zm19.3 0v-0.1c0-4.21-2.76-7-6.08-7s-6.12 2.75-6.12 7v0.1c0 4.21 2.81 7 6.12 7s6.08-2.79 6.08-7z"/>
        <path d="m199.51 47.74v-0.09c0-7.25 5.09-13.21 12.38-13.21 8.37 0 12.2 6.58 12.2 13.77 0 0.57-0.05 1.23-0.1 1.9h-17.42a5.83 5.83 0 0 0 6.12 5 8.14 8.14 0 0 0 6.07-2.64l4.07 3.65a12.48 12.48 0 0 1-10.24 4.73c-7.52 0-13.08-5.35-13.08-13.11zm17.66-2.13c-0.42-3.22-2.29-5.4-5.28-5.4s-4.86 2.13-5.42 5.4z"/>
        <path d="m228.2 34.91h7.1v3.6c1.64-2.13 3.79-4.07 7.38-4.07a7.48 7.48 0 0 1 7.06 4 10.27 10.27 0 0 1 8.22-4c5.29 0 8.46 3.22 8.46 9.32v16.52h-7.1v-14.15c0-3.41-1.5-5.16-4.16-5.16s-4.3 1.75-4.3 5.16v14.15h-7.1v-14.15c0-3.41-1.5-5.16-4.16-5.16s-4.3 1.75-4.3 5.16v14.15h-7.1z"/>
        <path d="m287.17 34.91h7.38l-9.62 26c-1.92 5.16-4 7.1-8.23 7.1a11.66 11.66 0 0 1-6.31-1.75l2.37-5.26a6.36 6.36 0 0 0 3 1 2.37 2.37 0 0 0 2.48-1.66l-9.81-25.47h7.52l5.7 17.28z"/>
        <path d="m60 0.67v60h-60z"/>
        <path d="m52.52 53.17h-15.02v-3.31h15.02z" fill="#fff"/>
        <path d="m0 60.67v-60h60z" fill="url(#a)"/>
        <path d="m80.43 16.26 1.54-1.32c1.16 1.75 2.35 2.7 4.32 2.7 2.13 0 3.7-1.54 3.7-4.54v-12.66h2.16v12.63a6.82 6.82 0 0 1-1.73 5 5.77 5.77 0 0 1-4.16 1.57 6.49 6.49 0 0 1-5.83-3.38z"/>
        <path d="m96.04 12.4c0-4 2.84-7.27 6.7-7.27 4.13 0 6.5 3.3 6.5 7.37a4.94 4.94 0 0 1 0 0.68h-11.09a4.87 4.87 0 0 0 4.91 4.72 5.76 5.76 0 0 0 4.4-2l1.3 1.1a7.21 7.21 0 0 1-5.75 2.62 6.94 6.94 0 0 1-6.97-7.22zm11.1-0.81c-0.22-2.54-1.68-4.75-4.46-4.75-2.43 0-4.26 2-4.53 4.75z"/>
        <path d="m113.14 15.64v-8.42h-1.94v-1.84h1.94v-4.21h2.08v4.21h4.43v1.84h-4.43v8.15a2.07 2.07 0 0 0 2.35 2.32 4.23 4.23 0 0 0 2-0.49v1.8a5.29 5.29 0 0 1-2.51 0.59c-2.22-0.01-3.92-1.12-3.92-3.95z"/>
        <path d="m123.1 0.44h8a6.91 6.91 0 0 1 4.94 1.68 4.19 4.19 0 0 1 1.21 3v0.05a4.57 4.57 0 0 1-3 4.38c2.24 0.67 4 2 4 4.56 0 3.24-2.73 5.16-6.86 5.16h-8.4zm12 5c0-1.87-1.48-3.08-4.18-3.08h-5.75v6.5h5.59c2.56 0 4.34-1.16 4.34-3.37zm-4 5.31h-6v6.67h6.34c2.86 0 4.65-1.27 4.65-3.37v-0.05c0.11-2.06-1.62-3.25-4.91-3.25z"/>
        <path d="m142.34 5.38h2.08v3.62a6 6 0 0 1 5.7-3.89v2.24h-0.17c-3.05 0-5.53 2.19-5.53 6.4v5.56h-2.08z"/>
        <path d="m151.82 15.29v-0.06c0-2.94 2.43-4.5 6-4.5a14.85 14.85 0 0 1 4.29 0.59v-0.49c0-2.51-1.54-3.8-4.15-3.8a9.75 9.75 0 0 0-4.24 1l-0.62-1.7a11.55 11.55 0 0 1 5.07-1.16 6.16 6.16 0 0 1 4.51 1.54 5.55 5.55 0 0 1 1.43 4.08v8.53h-2v-2.09a6.1 6.1 0 0 1-5 2.4c-2.68 0-5.29-1.48-5.29-4.34zm10.28-1.08v-1.35a14.42 14.42 0 0 0-4.1-0.6c-2.62 0-4.08 1.14-4.08 2.89v0.06c0 1.75 1.62 2.78 3.51 2.78 2.56 0.01 4.67-1.57 4.67-3.78z"/>
        <path d="m168.31 0h2.37v2.29h-2.37zm0.13 5.34h2.08v14h-2.08z"/>
        <path d="m175.05 5.38h2.08v2.43a5.3 5.3 0 0 1 4.78-2.73c3.37 0 5.34 2.27 5.34 5.59v8.67h-2.08v-8.15c0-2.6-1.4-4.22-3.86-4.22a4.11 4.11 0 0 0-4.18 4.38v8h-2.08z"/>
        <path d="m190.3 17.56 1.06-1.49a8.16 8.16 0 0 0 4.83 1.78c1.67 0 2.89-0.86 2.89-2.21v-0.06c0-1.4-1.65-1.94-3.49-2.45-2.18-0.62-4.61-1.38-4.61-3.94v-0.06c0-2.4 2-4 4.75-4a9.49 9.49 0 0 1 5 1.54l-1 1.56a7.93 7.93 0 0 0-4.12-1.35c-1.65 0-2.7 0.87-2.7 2 0 1.32 1.72 1.84 3.59 2.4 2.16 0.65 4.48 1.49 4.48 4v0.05c0 2.65-2.19 4.19-5 4.19a9.67 9.67 0 0 1-5.68-1.96z"/>
    </g>
    <script xmlns=""/>
</svg>